:FULLY-SPECIFIED
:FORCE-ALL-JOINTS-BE-3DOF
:DEGREES
985
root 1.10248 15.1604 32.5031 5.38969 -4.71163 364.089
lfemur 8.7498 1.80767 5.21277
ltibia 1.89295e-14 0 0
lfoot -30.0156 -11.7531 0
ltoes -33.792 0 0
rfemur -32.8783 -15.898 -6.14091
rtibia 50.6724 0 0
rfoot -22.9 5.11203 0
rtoes -42.4899 0 0
lowerback -1.443 -0.42882 0.594006
upperback -0.802623 -0.581603 -5.92715
thorax -0.0858973 -0.311128 -6.49223
lowerneck -6.62399 1.2098 5.84753
upperneck 1.05687 1.0334 3.49472
head 1.45852 0.621261 0.140822
lclavicle 5.34154e-15 2.07249e-14 0
lhumerus -58.572 -45.3256 114.981
lradius 55.0402 0 0
lwrist 24.8502 0 0
lhand 37.7577 24.0382 0
lfingers 7.12502 0 0
lthumb 60.5087 37.2486 0
rclavicle 5.34154e-15 2.07249e-14 0
rhumerus 4.10224 -24.8303 0.0732646
rradius 28.0558 0 0
rwrist -11.2927 0 0
rhand -31.4589 -44.9755 0
rfingers 7.12502 0 0
rthumb -4.72626 -794.903 0
986
root 1.10619 15.1604 32.4967 5.3567 -4.67667 364.079
lfemur 8.74088 1.76387 5.21588
ltibia 2.11353e-14 0 0
lfoot -30.0324 -11.7193 0
ltoes -33.8191 0 0
rfemur -32.8275 -15.8761 -6.15025
rtibia 50.6357 0 0
rfoot -22.8927 5.05545 0
rtoes -42.5361 0 0
lowerback -1.43756 -0.416743 0.593814
upperback -0.788876 -0.564754 -5.91294
thorax -0.0725439 -0.30206 -6.47677
lowerneck -6.64967 1.20602 5.85012
upperneck 1.08476 1.02501 3.48802
head 1.47201 0.618184 0.138267
lclavicle 5.84171e-15 2.211e-14 0
lhumerus -58.5573 -45.3658 115.013
lradius 55.0446 0 0
lwrist 24.9008 0 0
lhand 37.6949 24.0832 0
lfingers 7.12502 0 0
lthumb 60.4555 37.3539 0
rclavicle 5.84171e-15 2.211e-14 0
rhumerus 4.05754 -24.7717 0.0281892
rradius 28.0392 0 0
rwrist -11.2614 0 0
rhand -31.4355 -44.8561 0
rfingers 7.12502 0 0
rthumb -4.70363 -794.784 0
987
root 1.10991 15.1603 32.4904 5.32371 -4.64172 364.07
lfemur 8.73196 1.72008 5.21898
ltibia 2.33412e-14 0 0
lfoot -30.0492 -11.6855 0
ltoes -33.8462 0 0
rfemur -32.7768 -15.8542 -6.1596
rtibia 50.5991 0 0
rfoot -22.8854 4.99886 0
rtoes -42.5823 0 0
lowerback -1.43212 -0.404666 0.593621
upperback -0.775129 -0.547904 -5.89873
thorax -0.0591906 -0.292991 -6.4613
lowerneck -6.67535 1.20224 5.8527
upperneck 1.11265 1.01662 3.48132
head 1.4855 0.615106 0.135712
lclavicle 6.34187e-15 2.3495e-14 0
lhumerus -58.5425 -45.406 115.045
lradius 55.049 0 0
lwrist 24.9515 0 0
lhand 37.6321 24.1283 0
lfingers 7.12502 0 0
lthumb 60.4024 37.4592 0
rclavicle 6.34187e-15 2.3495e-14 0
rhumerus 4.01284 -24.7131 -0.0168863
rradius 28.0225 0 0
rwrist -11.23 0 0
rhand -31.4121 -44.7366 0
rfingers 7.12502 0 0
rthumb -4.68099 -794.665 0
988
root 1.11363 15.1603 32.4841 5.29071 -4.60677 364.061
lfemur 8.72303 1.67629 5.22209
ltibia 2.55471e-14 0 0
lfoot -30.0659 -11.6518 0
ltoes -33.8732 0 0
rfemur -32.726 -15.8323 -6.16894
rtibia 50.5624 0 0
rfoot -22.8782 4.94228 0
rtoes -42.6285 0 0
lowerback -1.42668 -0.392589 0.593429
upperback -0.761381 -0.531054 -5.88452
thorax -0.0458373 -0.283923 -6.44583
lowerneck -6.70103 1.19847 5.85528
upperneck 1.14054 1.00824 3.47461
head 1.49898 0.612028 0.133157
lclavicle 6.84204e-15 2.48801e-14 0
lhumerus -58.5278 -45.4462 115.078
lradius 55.0535 0 0
lwrist 25.0021 0 0
lhand 37.5692 24.1734 0
lfingers 7.12502 0 0
lthumb 60.3493 37.5645 0
rclavicle 6.84204e-15 2.48801e-14 0
rhumerus 3.96814 -24.6544 -0.0619617
rradius 28.0058 0 0
rwrist -11.1986 0 0
rhand -31.3886 -44.6171 0
rfingers 7.12502 0 0
rthumb -4.65836 -794.546 0
989
root 1.11734 15.1603 32.4778 5.25772 -4.57181 364.052
lfemur 8.71411 1.63249 5.2252
ltibia 2.77529e-14 0 0
lfoot -30.0827 -11.618 0
ltoes -33.9003 0 0
rfemur -32.6752 -15.8104 -6.17828
rtibia 50.5257 0 0
rfoot -22.8709 4.88569 0
rtoes -42.6747 0 0
lowerback -1.42124 -0.380512 0.593236
upperback -0.747634 -0.514204 -5.87031
thorax -0.0324839 -0.274855 -6.43037
lowerneck -6.72671 1.19469 5.85787
upperneck 1.16844 0.999851 3.46791
head 1.51247 0.608951 0.130602
lclavicle 7.34221e-15 2.62652e-14 0
lhumerus -58.5131 -45.4864 115.11
lradius 55.0579 0 0
lwrist 25.0528 0 0
lhand 37.5064 24.2184 0
lfingers 7.12502 0 0
lthumb 60.2961 37.6698 0
rclavicle 7.34221e-15 2.62652e-14 0
rhumerus 3.92344 -24.5958 -0.107037
rradius 27.9892 0 0
rwrist -11.1672 0 0
rhand -31.3652 -44.4976 0
rfingers 7.12502 0 0
rthumb -4.63572 -794.427 0
990
root 1.12106 15.1603 32.4715 5.22473 -4.53686 364.043
lfemur 8.70518 1.5887 5.22831
ltibia 2.99588e-14 0 0
lfoot -30.0995 -11.5842 0
ltoes -33.9274 0 0
rfemur -32.6244 -15.7885 -6.18762
rtibia 50.4891 0 0
rfoot -22.8636 4.82911 0
rtoes -42.7208 0 0
lowerback -1.41579 -0.368435 0.593044
upperback -0.733887 -0.497354 -5.85609
thorax -0.0191306 -0.265787 -6.4149
lowerneck -6.7524 1.19092 5.86045
upperneck 1.19633 0.991464 3.46121
head 1.52596 0.605873 0.128047
lclavicle 7.84238e-15 2.76503e-14 0
lhumerus -58.4983 -45.5266 115.143
lradius 55.0623 0 0
lwrist 25.1034 0 0
lhand 37.4436 24.2635 0
lfingers 7.12502 0 0
lthumb 60.243 37.775 0
rclavicle 7.84238e-15 2.76503e-14 0
rhumerus 3.87875 -24.5372 -0.152113
rradius 27.9725 0 0
rwrist -11.1358 0 0
rhand -31.3417 -44.3781 0
rfingers 7.12502 0 0
rthumb -4.61309 -794.308 0
991
root 1.12478 15.1602 32.4652 5.19174 -4.50191 364.033
lfemur 8.69626 1.54491 5.23141
ltibia 3.21647e-14 0 0
lfoot -30.1163 -11.5504 0
ltoes -33.9545 0 0
rfemur -32.5737 -15.7666 -6.19697
rtibia 50.4524 0 0
rfoot -22.8563 4.77252 0
rtoes -42.767 0 0
lowerback -1.41035 -0.356358 0.592851
upperback -0.72014 -0.480505 -5.84188
thorax -0.00577727 -0.256718 -6.39943
lowerneck -6.77808 1.18714 5.86303
upperneck 1.22422 0.983077 3.45451
head 1.53945 0.602795 0.125492
lclavicle 8.34254e-15 2.90353e-14 0
lhumerus -58.4836 -45.5668 115.175
lradius 55.0667 0 0
lwrist 25.1541 0 0
lhand 37.3808 24.3086 0
lfingers 7.12502 0 0
lthumb 60.1899 37.8803 0
rclavicle 8.34254e-15 2.90353e-14 0
rhumerus 3.83405 -24.4786 -0.197188
rradius 27.9558 0 0
rwrist -11.1044 0 0
rhand -31.3183 -44.2587 0
rfingers 7.12502 0 0
rthumb -4.59045 -794.189 0
992
root 1.12849 15.1602 32.4589 5.15874 -4.46695 364.024
lfemur 8.68733 1.50111 5.23452
ltibia 3.43705e-14 0 0
lfoot -30.1331 -11.5167 0
ltoes -33.9815 0 0
rfemur -32.5229 -15.7447 -6.20631
rtibia 50.4158 0 0
rfoot -22.8491 4.71594 0
rtoes -42.8132 0 0
lowerback -1.40491 -0.344281 0.592659
upperback -0.706392 -0.463655 -5.82767
thorax 0.00757606 -0.24765 -6.38397
lowerneck -6.80376 1.18337 5.86562
upperneck 1.25211 0.974691 3.4478
head 1.55293 0.599718 0.122937
lclavicle 8.84271e-15 3.04204e-14 0
lhumerus -58.4688 -45.607 115.208
lradius 55.0712 0 0
lwrist 25.2047 0 0
lhand 37.318 24.3536 0
lfingers 7.12502 0 0
lthumb 60.1367 37.9856 0
rclavicle 8.84271e-15 3.04204e-14 0
rhumerus 3.78935 -24.42 -0.242264
rradius 27.9392 0 0
rwrist -11.073 0 0
rhand -31.2948 -44.1392 0
rfingers 7.12502 0 0
rthumb -4.56782 -794.07 0
993
root 1.13221 15.1602 32.4526 5.12575 -4.432 364.015
lfemur 8.67841 1.45732 5.23763
ltibia 3.65764e-14 0 0
lfoot -30.1499 -11.4829 0
ltoes -34.0086 0 0
rfemur -32.4721 -15.7228 -6.21565
rtibia 50.3791 0 0
rfoot -22.8418 4.65935 0
rtoes -42.8594 0 0
lowerback -1.39947 -0.332204 0.592466
upperback -0.692645 -0.446805 -5.81346
thorax 0.0209294 -0.238582 -6.3685
lowerneck -6.82944 1.17959 5.8682
upperneck 1.28 0.966304 3.4411
head 1.56642 0.59664 0.120382
lclavicle 9.34288e-15 3.18055e-14 0
lhumerus -58.4541 -45.6472 115.24
lradius 55.0756 0 0
lwrist 25.2554 0 0
lhand 37.2552 24.3987 0
lfingers 7.12502 0 0
lthumb 60.0836 38.0909 0
rclavicle 9.34288e-15 3.18055e-14 0
rhumerus 3.74465 -24.3614 -0.287339
rradius 27.9225 0 0
rwrist -11.0416 0 0
rhand -31.2714 -44.0197 0
rfingers 7.12502 0 0
rthumb -4.54518 -793.951 0
994
root 1.13275 15.1602 32.4525 5.11651 -4.3981 363.999
lfemur 8.67132 1.42379 5.25547
ltibia 3.58582e-14 0 0
lfoot -30.1499 -11.4669 0
ltoes -34.0226 0 0
rfemur -32.441 -15.7297 -6.20868
rtibia 50.3737 0 0
rfoot -22.8237 4.66565 0
rtoes -42.8423 0 0
lowerback -1.40167 -0.325561 0.58036
upperback -0.687272 -0.437352 -5.81815
thorax 0.0288119 -0.233572 -6.36641
lowerneck -6.84191 1.17032 5.88286
upperneck 1.29344 0.950942 3.4437
head 1.57292 0.589756 0.11827
lclavicle 9.0447e-15 3.0523e-14 0
lhumerus -58.4614 -45.6757 115.242
lradius 55.098 0 0
lwrist 25.2558 0 0
lhand 37.2554 24.4184 0
lfingers 7.12502 0 0
lthumb 60.0838 38.1104 0
rclavicle 9.0447e-15 3.0523e-14 0
rhumerus 3.71154 -24.3444 -0.269745
rradius 27.9129 0 0
rwrist -11.0128 0 0
rhand -31.2528 -43.9774 0
rfingers 7.12502 0 0
rthumb -4.52721 -793.909 0
995
root 1.13329 15.1602 32.4524 5.10727 -4.36421 363.983
lfemur 8.66423 1.39026 5.27332
ltibia 3.514e-14 0 0
lfoot -30.1499 -11.451 0
ltoes -34.0365 0 0
rfemur -32.41 -15.7365 -6.20172
rtibia 50.3682 0 0
rfoot -22.8057 4.67195 0
rtoes -42.8252 0 0
lowerback -1.40386 -0.318917 0.568253
upperback -0.681898 -0.4279 -5.82285
thorax 0.0366943 -0.228561 -6.36432
lowerneck -6.85438 1.16105 5.89752
upperneck 1.30688 0.935579 3.44631
head 1.57943 0.582871 0.116157
lclavicle 8.74653e-15 2.92405e-14 0
lhumerus -58.4687 -45.7042 115.244
lradius 55.1204 0 0
lwrist 25.2562 0 0
lhand 37.2556 24.4381 0
lfingers 7.12502 0 0
lthumb 60.0839 38.13 0
rclavicle 8.74653e-15 2.92405e-14 0
rhumerus 3.67844 -24.3274 -0.25215
rradius 27.9034 0 0
rwrist -10.9839 0 0
rhand -31.2342 -43.9352 0
rfingers 7.12502 0 0
rthumb -4.50924 -793.867 0
996
root 1.13384 15.1602 32.4523 5.09803 -4.33031 363.966
lfemur 8.65714 1.35673 5.29116
ltibia 3.44218e-14 0 0
lfoot -30.15 -11.435 0
ltoes -34.0505 0 0
rfemur -32.3789 -15.7434 -6.19475
rtibia 50.3628 0 0
rfoot -22.7876 4.67825 0
rtoes -42.8081 0 0
lowerback -1.40606 -0.312274 0.556147
upperback -0.676525 -0.418447 -5.82754
thorax 0.0445768 -0.223551 -6.36224
lowerneck -6.86685 1.15178 5.91219
upperneck 1.32033 0.920217 3.44891
head 1.58593 0.575987 0.114045
lclavicle 8.44835e-15 2.79581e-14 0
lhumerus -58.476 -45.7327 115.247
lradius 55.1429 0 0
lwrist 25.2566 0 0
lhand 37.2558 24.4578 0
lfingers 7.12502 0 0
lthumb 60.0841 38.1495 0
rclavicle 8.44835e-15 2.79581e-14 0
rhumerus 3.64533 -24.3104 -0.234556
rradius 27.8938 0 0
rwrist -10.9551 0 0
rhand -31.2156 -43.8929 0
rfingers 7.12502 0 0
rthumb -4.49127 -793.825 0
997
root 1.13438 15.1601 32.4523 5.08879 -4.29642 363.95
lfemur 8.65005 1.3232 5.309
ltibia 3.37036e-14 0 0
lfoot -30.15 -11.419 0
ltoes -34.0645 0 0
rfemur -32.3479 -15.7502 -6.18778
rtibia 50.3573 0 0
rfoot -22.7696 4.68456 0
rtoes -42.791 0 0
lowerback -1.40825 -0.305631 0.544041
upperback -0.671152 -0.408995 -5.83224
thorax 0.0524593 -0.218541 -6.36015
lowerneck -6.87932 1.14251 5.92685
upperneck 1.33377 0.904854 3.45151
head 1.59243 0.569102 0.111933
lclavicle 8.15017e-15 2.66756e-14 0
lhumerus -58.4832 -45.7612 115.249
lradius 55.1653 0 0
lwrist 25.257 0 0
lhand 37.256 24.4776 0
lfingers 7.12502 0 0
lthumb 60.0843 38.1691 0
rclavicle 8.15017e-15 2.66756e-14 0
rhumerus 3.61222 -24.2933 -0.216961
rradius 27.8843 0 0
rwrist -10.9262 0 0
rhand -31.197 -43.8506 0
rfingers 7.12502 0 0
rthumb -4.47331 -793.783 0
